<?xml version="1.0" encoding="UTF-8"?>
<svg id="Ebene_2" xmlns="http://www.w3.org/2000/svg" viewBox="0 0 187.63 55.14">
  <defs>
    <style>
      .cls-1 {
        fill: #b99f65;
      }

      .cls-2 {
        fill: #bba167;
      }
    </style>
  </defs>
  <g id="Ebene_1-2" data-name="Ebene_1">
    <g id="Ebene_1-2">
      <path class="cls-2" d="M34.16,41.51c-.69.96-1.48,1.88-2.37,2.74-3.39,3.28-7.98,5.55-12.9,6.38l-.22.04-.22-.04C7.93,48.84,0,40.83,0,32.01V6.82L18.67,0l18.67,6.82v10.47h-2.58v-8.66L18.67,2.75,2.59,8.63v23.39c0,7.52,6.9,14.38,16.08,16.04,4.33-.78,8.35-2.79,11.32-5.66.29-.29.56-.58.83-.88h3.33,0ZM8.26,13.94v5.18h7.47v19.23h5.83v-19.23h7.51v-5.18s-20.81,0-20.81,0ZM40.49,20.46c-.38-.03-.75-.07-1.16-.07-2.64,0-4.28,1.37-5.04,3.57v-3.29h-5.21v17.68h5.35v-8.23c0-3.32,1.71-4.8,4.7-4.8h1.37v-4.87M46.45,27.69c.41-2.43,1.92-3.5,3.87-3.5,2.19,0,3.6,1.3,3.98,3.5h-7.85ZM41.27,29.51c0,5.62,3.7,9.25,9.19,9.25,4.25,0,7.68-2.23,8.64-5.93h-5.07c-.62,1.27-1.82,1.99-3.56,1.99-2.09,0-3.67-1.17-4.05-3.74h13.09v-1.06c0-5.96-3.6-9.77-9.12-9.77s-9.12,3.67-9.12,9.25M61.01,32.73c.31,4.39,3.08,6.14,8.5,6.14s8.43-2.06,8.43-5.73c0-3.15-2.02-4.83-6.2-5.49l-2.64-.38c-1.72-.27-2.57-.72-2.57-1.78s.79-1.68,2.71-1.68,3.19.58,3.26,2.5h4.97c-.17-3.46-2.26-6.07-8.23-6.07-5.18,0-7.95,2.06-7.95,5.59,0,3.15,2.23,4.83,5.96,5.41l2.3.38c2.4.38,3.05.89,3.05,1.95s-.82,1.71-2.98,1.71-3.19-.65-3.39-2.57h-5.21M92.29,29.51c0,3.36-1.47,4.97-3.84,4.97s-3.87-1.61-3.87-4.97,1.48-4.97,3.87-4.97,3.84,1.61,3.84,4.97M79.16,29.51c0,5.62,3.63,9.25,9.29,9.25s9.25-3.63,9.25-9.25-3.64-9.25-9.25-9.25-9.29,3.63-9.29,9.25M111.09,20.46c-.38-.03-.75-.07-1.17-.07-2.64,0-4.28,1.37-5.04,3.57v-3.29h-5.21v17.68h5.35v-8.23c0-3.32,1.71-4.8,4.7-4.8h1.37v-4.87M130.9,24.47h-13.61v-10.52h-2.88v24.4h2.88v-11.28h13.61v11.28h2.88V13.94h-2.88v10.52ZM148.72,31.36c0,3.5-2.85,5.07-5.49,5.07-2.44,0-3.53-1.17-3.53-2.91s.89-2.81,4.11-3.19l2.57-.31c1.03-.1,1.78-.34,2.33-.76v2.09M152.35,36.12c-.65,0-.96-.31-.96-.86v-9.87c0-2.98-1.75-5.14-6.65-5.14-5.17,0-6.99,2.43-7.2,5.86h2.74c.17-2.64,1.44-3.5,4.46-3.5s3.98.93,3.98,2.78c0,1.58-.99,2.23-2.78,2.44l-2.54.27c-4.87.51-6.55,2.71-6.55,5.49,0,3.32,2.4,5.18,6.24,5.18,2.54,0,4.53-.96,5.76-2.85.14,1.68,1.03,2.53,2.98,2.53.52,0,1.06-.03,1.51-.1v-2.23h-.99,0ZM167.39,30.67c0,3.91-2.57,5.62-4.87,5.62-2.53,0-4.04-1.2-4.04-3.94v-11.69h-2.74v11.96c0,3.91,2.3,6.14,6.24,6.14,2.47,0,4.39-1.27,5.55-3.05v2.64h2.61v-17.69h-2.74v10.01h0ZM172.97,32.73c.27,4.15,3.02,6.03,7.51,6.03s7.03-1.92,7.03-5.28c0-2.88-1.75-4.35-6.1-5.21l-1.58-.31c-2.26-.44-3.56-1.06-3.56-2.74s1.34-2.61,3.7-2.61c2.71,0,4.32.75,4.45,3.49h2.74c-.07-3.77-2.47-5.86-7.2-5.86-4.05,0-6.45,1.99-6.45,5,0,2.74,1.68,4.49,5.52,5.21l1.65.31c3.08.58,4.04,1.3,4.04,2.88,0,1.75-1.27,2.74-4.25,2.74s-4.42-.99-4.73-3.67h-2.78"/>
    </g>
    <g>
      <path class="cls-1" d="M87.43,54.99v-8.73h2.94c.57,0,1.04.1,1.42.3.38.2.66.47.85.81s.29.73.29,1.17c0,.36-.06.67-.18.93-.12.26-.29.47-.5.63-.21.16-.44.27-.7.34v.07c.28.02.55.12.82.3.26.18.48.43.65.74.17.32.26.7.26,1.14s-.1.83-.29,1.18c-.2.34-.5.62-.9.81-.41.2-.92.3-1.54.3h-3.11ZM88.22,50.2h2.22c.34,0,.64-.07.9-.21s.46-.34.61-.59c.14-.25.22-.54.22-.86,0-.46-.15-.84-.45-1.13-.3-.29-.75-.44-1.35-.44h-2.15v3.23ZM88.22,54.27h2.31c.67,0,1.17-.15,1.49-.45.32-.3.48-.67.48-1.12,0-.33-.08-.63-.24-.91s-.39-.49-.68-.65-.63-.24-1.02-.24h-2.34v3.36Z"/>
      <path class="cls-1" d="M97.68,55.12c-.61,0-1.14-.14-1.58-.43-.45-.29-.79-.68-1.03-1.19-.24-.51-.37-1.09-.37-1.75s.12-1.25.37-1.76c.24-.51.58-.91,1.01-1.21.43-.29.93-.44,1.49-.44.36,0,.7.06,1.03.19.33.13.63.33.89.59s.47.6.62,1,.23.88.23,1.43v.38h-5.11v-.67h4.34c0-.42-.08-.8-.25-1.14s-.4-.6-.7-.8c-.3-.2-.65-.29-1.04-.29-.42,0-.78.11-1.09.33s-.56.51-.74.88c-.18.36-.27.76-.27,1.19v.4c0,.52.09.97.27,1.36.18.39.44.69.77.9.33.21.73.32,1.18.32.31,0,.58-.05.82-.15s.43-.23.59-.39c.16-.16.28-.34.36-.54l.72.23c-.1.28-.26.53-.49.76s-.51.42-.84.56-.72.21-1.16.21Z"/>
      <path class="cls-1" d="M106.4,49.88l-.69.2c-.07-.2-.17-.37-.29-.53-.12-.16-.29-.29-.49-.38s-.45-.14-.74-.14c-.44,0-.81.1-1.09.32-.28.21-.43.48-.43.81,0,.28.1.51.29.68.2.17.5.31.9.42l.99.24c.55.13.96.35,1.23.63s.41.65.41,1.09c0,.37-.1.7-.31.98-.21.29-.49.51-.85.68-.37.16-.79.25-1.27.25-.64,0-1.17-.14-1.58-.43-.42-.29-.68-.71-.8-1.25l.73-.18c.09.39.28.68.55.88s.64.3,1.08.3c.5,0,.9-.11,1.21-.34.3-.23.45-.51.45-.85,0-.26-.09-.49-.26-.67-.18-.18-.44-.31-.8-.4l-1.07-.26c-.57-.14-.99-.35-1.26-.65-.27-.3-.41-.66-.41-1.1,0-.36.1-.68.29-.95.2-.27.47-.49.81-.65.34-.16.74-.23,1.18-.23.6,0,1.08.14,1.44.41.36.27.62.64.78,1.12Z"/>
      <path class="cls-1" d="M110.7,55.12c-.57,0-1.06-.14-1.5-.43s-.77-.68-1.02-1.19c-.24-.51-.37-1.09-.37-1.76s.12-1.26.37-1.77c.24-.51.58-.91,1.02-1.19.43-.29.93-.43,1.5-.43s1.06.14,1.5.43c.43.29.77.68,1.02,1.19.25.51.37,1.1.37,1.77s-.12,1.25-.37,1.76c-.24.51-.58.9-1.02,1.19-.43.29-.93.43-1.5.43ZM110.7,54.43c.45,0,.84-.12,1.15-.37.32-.24.55-.57.72-.98.16-.41.25-.85.25-1.34s-.08-.94-.25-1.35c-.16-.41-.4-.74-.72-.98s-.7-.37-1.15-.37-.84.12-1.15.37c-.32.25-.56.58-.72.98s-.25.86-.25,1.35.08.94.25,1.34.4.73.72.98c.32.24.7.37,1.16.37Z"/>
      <path class="cls-1" d="M116.01,50.9v4.09h-.76v-6.55h.74v1.03h.07c.15-.33.39-.6.72-.81s.73-.3,1.21-.3c.44,0,.83.09,1.16.27.33.18.59.45.78.81.19.35.28.79.28,1.31v4.24h-.76v-4.19c0-.54-.15-.96-.45-1.27s-.7-.47-1.2-.47c-.34,0-.65.07-.92.22-.27.15-.48.36-.63.64-.15.28-.23.61-.23.99Z"/>
      <path class="cls-1" d="M124.56,55.12c-.54,0-1.01-.14-1.41-.43-.4-.28-.72-.68-.94-1.19-.23-.51-.34-1.1-.34-1.78s.11-1.26.34-1.77c.23-.51.54-.9.95-1.18s.88-.42,1.42-.42c.4,0,.73.07.99.21.26.14.48.31.63.52s.28.41.37.6h.07v-3.43h.76v8.73h-.74v-1.21h-.09c-.09.2-.21.4-.38.61s-.38.38-.64.53-.6.21-1,.21ZM124.65,54.43c.42,0,.78-.12,1.08-.35.3-.23.53-.55.68-.96.16-.41.24-.88.24-1.4s-.08-.98-.23-1.39c-.16-.4-.38-.72-.68-.95-.3-.23-.66-.34-1.09-.34s-.81.12-1.11.36c-.3.24-.53.56-.68.96-.15.4-.23.86-.23,1.36s.08.97.23,1.38.38.73.68.97c.3.24.67.36,1.1.36Z"/>
      <path class="cls-1" d="M132.21,55.12c-.61,0-1.14-.14-1.58-.43-.45-.29-.79-.68-1.03-1.19-.24-.51-.37-1.09-.37-1.75s.12-1.25.37-1.76c.24-.51.58-.91,1.01-1.21.43-.29.93-.44,1.49-.44.36,0,.7.06,1.03.19.33.13.63.33.89.59s.47.6.62,1,.23.88.23,1.43v.38h-5.11v-.67h4.34c0-.42-.08-.8-.25-1.14s-.4-.6-.7-.8c-.3-.2-.65-.29-1.04-.29-.42,0-.78.11-1.09.33s-.56.51-.74.88c-.18.36-.27.76-.27,1.19v.4c0,.52.09.97.27,1.36.18.39.44.69.77.9.33.21.73.32,1.18.32.31,0,.58-.05.82-.15s.43-.23.59-.39c.16-.16.28-.34.36-.54l.72.23c-.1.28-.26.53-.49.76s-.51.42-.84.56-.72.21-1.16.21Z"/>
      <path class="cls-1" d="M136.53,54.99v-6.55h.74v1.01h.05c.13-.33.36-.6.68-.8s.69-.3,1.11-.3c.06,0,.13,0,.21,0,.08,0,.14,0,.19,0v.77s-.09-.01-.18-.03c-.08-.01-.18-.02-.28-.02-.34,0-.64.07-.91.21-.27.14-.48.34-.63.59s-.23.54-.23.87v4.23h-.76Z"/>
      <path class="cls-1" d="M145.21,49.88l-.69.2c-.07-.2-.17-.37-.29-.53-.12-.16-.29-.29-.49-.38s-.45-.14-.74-.14c-.44,0-.81.1-1.09.32-.28.21-.43.48-.43.81,0,.28.1.51.29.68.2.17.5.31.9.42l.99.24c.55.13.96.35,1.23.63s.41.65.41,1.09c0,.37-.1.7-.31.98-.21.29-.49.51-.85.68-.37.16-.79.25-1.27.25-.64,0-1.17-.14-1.58-.43-.42-.29-.68-.71-.8-1.25l.73-.18c.09.39.28.68.55.88s.64.3,1.08.3c.5,0,.9-.11,1.21-.34.3-.23.45-.51.45-.85,0-.26-.09-.49-.26-.67-.18-.18-.44-.31-.8-.4l-1.07-.26c-.57-.14-.99-.35-1.26-.65-.27-.3-.41-.66-.41-1.1,0-.36.1-.68.29-.95.2-.27.47-.49.81-.65.34-.16.74-.23,1.18-.23.6,0,1.08.14,1.44.41.36.27.62.64.78,1.12Z"/>
      <path class="cls-1" d="M147.57,55.05c-.17,0-.31-.06-.43-.18-.12-.12-.18-.26-.18-.43s.06-.31.18-.43c.12-.12.27-.18.43-.18s.31.06.43.18c.12.12.18.27.18.43,0,.11-.03.21-.08.31-.06.09-.13.17-.22.22-.09.06-.2.08-.31.08Z"/>
      <path class="cls-1" d="M156.05,48.44c-.05-.49-.26-.87-.64-1.16-.38-.29-.86-.43-1.44-.43-.41,0-.76.07-1.07.21-.31.14-.55.33-.72.58s-.26.52-.26.84c0,.23.05.43.15.6s.23.32.4.45c.17.12.36.23.56.32.21.09.41.16.62.22l.92.26c.28.08.56.17.84.29.28.12.53.27.76.45.23.18.42.4.56.66.14.26.21.57.21.94,0,.47-.12.89-.36,1.26-.24.37-.59.67-1.04.88-.45.22-.99.33-1.62.33-.59,0-1.11-.1-1.55-.3s-.78-.47-1.03-.82-.39-.75-.42-1.21h.82c.03.34.14.63.34.87.2.24.46.42.78.54.32.12.67.19,1.07.19.43,0,.82-.07,1.16-.22.34-.15.61-.35.8-.61.19-.26.29-.57.29-.92,0-.3-.08-.54-.23-.74s-.37-.37-.64-.5c-.27-.14-.59-.26-.95-.36l-1.04-.31c-.68-.2-1.22-.49-1.59-.85s-.57-.82-.57-1.38c0-.47.12-.88.38-1.24.25-.36.59-.63,1.02-.83s.91-.3,1.45-.3,1.02.1,1.44.3c.42.2.75.47,1,.82.25.35.38.74.39,1.19h-.77Z"/>
      <path class="cls-1" d="M159.1,47.32c-.16,0-.29-.05-.4-.16-.11-.11-.17-.24-.17-.39s.06-.28.17-.39.25-.16.4-.16.29.05.4.16c.11.11.17.24.17.39s-.06.28-.17.39c-.11.11-.25.16-.4.16ZM158.71,54.99v-6.55h.76v6.55h-.76Z"/>
      <path class="cls-1" d="M164.04,55.12c-.58,0-1.09-.15-1.53-.44-.43-.29-.77-.69-1.01-1.2-.24-.51-.36-1.09-.36-1.74s.12-1.24.36-1.75c.24-.51.58-.91,1.01-1.2.43-.29.93-.44,1.5-.44.44,0,.83.08,1.19.25.36.17.65.41.88.71.23.31.38.66.44,1.07h-.77c-.08-.37-.27-.69-.57-.95s-.69-.39-1.15-.39c-.42,0-.79.11-1.11.34-.32.23-.57.54-.75.94s-.27.87-.27,1.4.09,1,.26,1.41c.18.41.42.73.74.96s.69.35,1.12.35c.29,0,.55-.05.79-.16.24-.11.44-.27.6-.47.16-.2.27-.44.33-.72h.77c-.06.4-.2.75-.42,1.05-.22.31-.51.55-.87.73-.35.18-.76.26-1.21.26Z"/>
      <path class="cls-1" d="M168.92,50.9v4.09h-.76v-8.73h.76v3.21h.07c.15-.34.39-.61.71-.81s.73-.3,1.23-.3c.44,0,.83.09,1.17.27.34.18.6.45.78.81.19.36.28.79.28,1.31v4.24h-.76v-4.19c0-.54-.15-.96-.45-1.28-.3-.31-.7-.47-1.21-.47-.35,0-.66.07-.93.22-.27.15-.49.36-.65.64-.16.28-.24.61-.24.99Z"/>
      <path class="cls-1" d="M177.81,55.12c-.61,0-1.14-.14-1.58-.43-.45-.29-.79-.68-1.03-1.19-.24-.51-.37-1.09-.37-1.75s.12-1.25.37-1.76c.24-.51.58-.91,1.01-1.21.43-.29.93-.44,1.49-.44.36,0,.7.06,1.03.19.33.13.63.33.89.59s.47.6.62,1,.23.88.23,1.43v.38h-5.11v-.67h4.34c0-.42-.08-.8-.25-1.14s-.4-.6-.7-.8c-.3-.2-.65-.29-1.04-.29-.42,0-.78.11-1.09.33s-.56.51-.74.88c-.18.36-.27.76-.27,1.19v.4c0,.52.09.97.27,1.36.18.39.44.69.77.9.33.21.73.32,1.18.32.31,0,.58-.05.82-.15s.43-.23.59-.39c.16-.16.28-.34.36-.54l.72.23c-.1.28-.26.53-.49.76s-.51.42-.84.56-.72.21-1.16.21Z"/>
      <path class="cls-1" d="M182.13,54.99v-6.55h.74v1.01h.05c.13-.33.36-.6.68-.8s.69-.3,1.11-.3c.06,0,.13,0,.21,0,.08,0,.14,0,.19,0v.77s-.09-.01-.18-.03c-.08-.01-.18-.02-.28-.02-.34,0-.64.07-.91.21-.27.14-.48.34-.63.59s-.23.54-.23.87v4.23h-.76Z"/>
      <path class="cls-1" d="M187.02,55.05c-.17,0-.31-.06-.43-.18-.12-.12-.18-.26-.18-.43s.06-.31.18-.43c.12-.12.27-.18.43-.18s.31.06.43.18c.12.12.18.27.18.43,0,.11-.03.21-.08.31-.06.09-.13.17-.22.22-.09.06-.2.08-.31.08Z"/>
    </g>
  </g>
</svg>